<?xml version="1.0" encoding="UTF-8" standalone="no"?>
<!-- Created with Inkscape (http://www.inkscape.org/) -->

<svg
   width="512"
   height="512"
   viewBox="0 0 135.46666 135.46667"
   version="1.1"
   id="svg29312"
   xmlns="http://www.w3.org/2000/svg"
   xmlns:svg="http://www.w3.org/2000/svg">
  <defs
     id="defs29309" />
  <g
     id="layer1">
    <path
       d="m 43.391657,27.506421 h 37.602097 c 9.066764,0 16.72645,1.891871 23.010296,5.65817 6.26702,3.764712 10.96608,9.016914 14.08038,15.740748 3.1119,6.723833 4.68225,14.418182 4.68225,23.086219 0,8.484077 -1.62558,16.181605 -4.87674,23.067186 -3.25117,6.904656 -8.19755,12.359856 -14.85115,16.384636 -6.653628,4.02479 -14.894394,6.04194 -24.731929,6.04194 H 43.394059 Z m 34.528618,67.111466 c 6.103738,0 10.802799,-2.038708 14.080376,-6.099017 3.279979,-4.078706 4.919968,-9.622696 4.919968,-16.657349 0,-6.52085 -1.462304,-11.719134 -4.382109,-15.610711 -2.919805,-3.894749 -7.342734,-5.857982 -13.254379,-5.857982 h -11.76564 l -2.2e-5,44.212379 z"
       style="fill:#ed4245;fill-opacity:1;stroke-width:0.645811"
       id="path22" />
    <path
       id="path21"
       style="fill:#ffffff;fill-opacity:1;stroke-width:0.645811"
       d="m 54.472627,17.981343 c -9.066763,0 -16.726137,1.891763 -23.009962,5.658052 -6.267016,3.764703 -10.965981,9.017342 -14.08028,15.741157 -3.111898,6.723814 -4.682398,14.417913 -4.682398,23.08593 0,8.484054 1.625535,16.181759 4.876699,23.067326 3.251165,6.904597 8.19769,12.359753 14.851292,16.384532 4.857177,2.93811 10.569911,4.79365 17.122472,5.58829 0.271643,0.0321 0.53954,0.0701 0.813392,0.0987 0.755523,0.0805 1.530737,0.13657 2.308375,0.18912 0.363631,0.0244 0.720971,0.0586 1.0883,0.077 1.054419,0.0528 2.127976,0.0815 3.222038,0.0842 0.06843,1.9e-4 0.133985,0.005 0.202658,0.005 8.484075,0 16.181796,-1.62555 23.067325,-4.8767 6.904619,-3.251159 12.359761,-8.197708 16.384538,-14.851293 4.024764,-6.653576 6.042004,-14.894316 6.042004,-24.731824 v -9.45265 H 93.080186 79.798816 67.518491 V 76.92844 h 9.200411 c -0.83822,1.192513 -1.826847,2.279681 -3.007039,3.232359 -4.078675,3.279969 -9.622752,4.919598 -16.657393,4.919598 l -0.214423,-0.01744 C 51.085941,84.907248 46.613573,82.892892 43.466186,78.993871 40.186208,74.915188 38.546074,69.37164 38.546074,62.337007 c 0,-6.520831 1.462352,-11.719366 4.382157,-15.610933 2.919806,-3.89473 7.342854,-5.858039 13.254499,-5.858039 H 77.195915 V 17.981577 Z" />
  </g>
</svg>
