<?xml version="1.0" encoding="UTF-8" standalone="no"?>
<!-- Created with Inkscape (http://www.inkscape.org/) -->

<svg
   width="3705"
   height="511.99997"
   viewBox="0 0 980.28113 135.46664"
   version="1.1"
   id="svg29312"
   xmlns="http://www.w3.org/2000/svg"
   xmlns:svg="http://www.w3.org/2000/svg">
  <defs
     id="defs29309" />
  <g
     id="g41"
     transform="translate(456.20596)">
    <path
       d="m 43.391657,27.506421 h 37.602097 c 9.066764,0 16.72645,1.891871 23.010296,5.65817 6.26702,3.764712 10.96608,9.016914 14.08038,15.740748 3.1119,6.723833 4.68225,14.418182 4.68225,23.086219 0,8.484077 -1.62558,16.181605 -4.87674,23.067186 -3.25117,6.904656 -8.19755,12.359856 -14.85115,16.384636 -6.653628,4.02479 -14.894394,6.04194 -24.731929,6.04194 H 43.394059 Z m 34.528618,67.111466 c 6.103738,0 10.802799,-2.038708 14.080376,-6.099017 3.279979,-4.078706 4.919968,-9.622696 4.919968,-16.657349 0,-6.52085 -1.462304,-11.719134 -4.382109,-15.610711 -2.919805,-3.894749 -7.342734,-5.857982 -13.254379,-5.857982 h -11.76564 l -2.2e-5,44.212379 z"
       style="fill:#ed4245;fill-opacity:1;stroke-width:0.645811"
       id="path22" />
    <path
       d="m 154.5,54.49 c -2.169,-0.5675 -4.126,-1.39 -5.864,-2.473 v -6.729 c 1.314,1.025 3.075,1.87 5.284,2.536 2.209,0.6602 4.344,0.9902 6.409,0.9902 0.964,0 1.693,-0.1274 2.186,-0.3822 0.494,-0.2547 0.741,-0.5617 0.741,-0.9149 0,-0.4053 -0.132,-0.7412 -0.402,-1.013 -0.27,-0.2721 -0.792,-0.498 -1.566,-0.6891 l -4.82,-1.094 c -2.76,-0.6485 -4.717,-1.546 -5.881,-2.699 -1.165,-1.147 -1.745,-2.652 -1.745,-4.517 0,-1.569 0.505,-2.93 1.527,-4.094 1.015,-1.164 2.461,-2.062 4.337,-2.693 1.877,-0.637 4.068,-0.9555 6.587,-0.9555 2.249,0 4.309,0.2432 6.186,0.7297 1.876,0.4865 3.425,1.106 4.659,1.865 v 6.364 c -1.263,-0.7586 -2.709,-1.355 -4.361,-1.807 -1.647,-0.4459 -3.339,-0.6659 -5.084,-0.6659 -2.519,0 -3.775,0.4343 -3.775,1.297 0,0.4054 0.195,0.7065 0.585,0.9092 0.39,0.2027 1.107,0.4112 2.146,0.6312 l 4.016,0.7297 c 2.623,0.4575 4.579,1.262 5.864,2.409 1.286,1.147 1.928,2.843 1.928,5.09 0,2.461 -1.061,4.413 -3.19,5.861 -2.129,1.448 -5.147,2.172 -9.06,2.172 -2.301,-0.0057 -4.538,-0.2895 -6.707,-0.857 z"
       style="fill:#ed4245;fill-opacity:1;stroke-width:0.233392"
       id="path30"
       transform="matrix(2.4140938,0,0,3.1716257,-193.26195,-55.431602)" />
    <path
       d="m 183,53.63 c -2.3,-1.135 -4.039,-2.675 -5.198,-4.621 -1.159,-1.946 -1.744,-4.135 -1.744,-6.567 0,-2.432 0.602,-4.61 1.807,-6.526 1.205,-1.916 2.972,-3.423 5.302,-4.517 2.329,-1.094 5.112,-1.639 8.354,-1.639 4.016,0 7.35,0.8513 10,2.554 v 7.418 c -0.935,-0.6486 -2.026,-1.176 -3.271,-1.581 -1.245,-0.4053 -2.576,-0.6081 -3.999,-0.6081 -2.49,0 -4.435,0.4575 -5.841,1.378 -1.406,0.9205 -2.111,2.12 -2.111,3.608 0,1.459 0.682,2.652 2.048,3.59 1.366,0.9323 3.345,1.401 5.944,1.401 1.337,0 2.657,-0.1969 3.959,-0.5849 1.297,-0.3938 2.416,-0.8744 3.351,-1.442 v 7.175 c -2.943,1.784 -6.357,2.675 -10.24,2.675 -3.27,-0.01156 -6.059,-0.5791 -8.36,-1.714 z"
       style="fill:#ed4245;fill-opacity:1;stroke-width:0.233392"
       id="path31"
       transform="matrix(2.4140938,0,0,3.1716257,-193.26195,-55.431602)" />
    <path
       d="m 211.5,53.63 c -2.318,-1.135 -4.085,-2.687 -5.302,-4.662 -1.216,-1.975 -1.83,-4.175 -1.83,-6.608 0,-2.432 0.608,-4.604 1.83,-6.509 1.222,-1.905 2.978,-3.399 5.285,-4.482 2.3,-1.083 5.049,-1.621 8.233,-1.621 3.185,0 5.933,0.5386 8.234,1.621 2.301,1.083 4.057,2.565 5.262,4.459 1.205,1.894 1.807,4.065 1.807,6.527 0,2.432 -0.602,4.633 -1.807,6.607 -1.205,1.975 -2.967,3.527 -5.285,4.662 -2.318,1.135 -5.055,1.703 -8.216,1.703 -3.162,0 -5.899,-0.5618 -8.211,-1.697 z m 12.2,-7.192 c 0.976,-0.9844 1.469,-2.287 1.469,-3.909 0,-1.621 -0.488,-2.913 -1.469,-3.868 -0.975,-0.9613 -2.307,-1.442 -3.993,-1.442 -1.716,0 -3.059,0.4806 -4.04,1.442 -0.975,0.9614 -1.463,2.247 -1.463,3.868 0,1.621 0.488,2.924 1.463,3.909 0.976,0.9845 2.324,1.483 4.04,1.483 1.686,-0.0058 3.018,-0.498 3.993,-1.483 z"
       style="fill:#ed4245;fill-opacity:1;stroke-width:0.233392"
       id="path32"
       transform="matrix(2.4140938,0,0,3.1716257,-193.26195,-55.431602)" />
    <path
       d="m 259.2,31.26 v 8.756 c -1.021,-0.6776 -2.341,-1.013 -3.976,-1.013 -2.141,0 -3.793,0.6545 -4.941,1.963 -1.153,1.309 -1.727,3.347 -1.727,6.104 v 7.459 h -9.84 v -23.71 h 9.64 v 7.54 c 0.533,-2.757 1.4,-4.789 2.593,-6.104 1.188,-1.309 2.725,-1.963 4.596,-1.963 1.417,0 2.634,0.3243 3.655,0.9728 z"
       style="fill:#ed4245;fill-opacity:1;stroke-width:0.233392"
       id="path33"
       transform="matrix(2.4140938,0,0,3.1716257,-193.26195,-55.431602)" />
    <path
       d="m 291.9,25.34 v 29.19 h -9.841 v -5.31 c -0.832,1.998 -2.094,3.521 -3.792,4.563 -1.699,1.037 -3.799,1.558 -6.289,1.558 -2.226,0 -4.165,-0.5444 -5.824,-1.639 -1.658,-1.094 -2.937,-2.594 -3.838,-4.5 -0.895,-1.905 -1.349,-4.059 -1.349,-6.469 -0.028,-2.484 0.448,-4.714 1.429,-6.689 0.976,-1.975 2.358,-3.515 4.137,-4.621 1.779,-1.106 3.81,-1.662 6.088,-1.662 4.688,0 7.832,2.056 9.438,6.162 v -10.58 z m -11.31,20.94 c 1.004,-0.9845 1.503,-2.264 1.503,-3.828 0,-1.511 -0.488,-2.745 -1.463,-3.689 -0.976,-0.9439 -2.313,-1.419 -3.994,-1.419 -1.658,0 -2.983,0.4806 -3.976,1.442 -0.993,0.9614 -1.486,2.206 -1.486,3.747 0,1.54 0.493,2.797 1.486,3.77 0.993,0.9728 2.301,1.459 3.936,1.459 1.658,-0.0057 2.989,-0.498 3.994,-1.482 z"
       style="fill:#ed4245;fill-opacity:1;stroke-width:0.233392"
       id="path34"
       transform="matrix(2.4140938,0,0,3.1716257,-193.26195,-55.431602)" />
    <path
       id="path35"
       style="fill:#ed4245;fill-opacity:1;stroke-width:0.233392"
       d="m 139.40004,24.445038 c -2.71,0 -4.90607,1.990949 -4.90607,4.446946 0,2.455998 2.19607,4.448087 4.90607,4.448087 2.709,0 4.90586,-1.991089 4.90586,-4.448087 0,-2.456997 -2.19686,-4.446946 -4.90586,-4.446946 z m -4.90008,11.954925 V 54.64999 h 9.81108 V 36.399963 c -3.075,1.366999 -6.80508,1.308999 -9.81108,0 z"
       transform="matrix(2.4140938,0,0,3.1716257,-193.26195,-55.431602)" />
  </g>
  <g
     id="g10"
     transform="matrix(0.75403961,0,0,1,-64.507407,0)"
     style="stroke-width:1.1516">
    <path
       d="M 232.90409,107.96069 V 32.763619 h 30.85008 v 23.908813 q 5.01314,-25.579859 23.00902,-25.579859 6.81272,0 11.69732,3.085008 v 27.765074 q -4.8846,-3.21355 -12.72566,-3.21355 -21.33797,0 -21.33797,25.579859 v 23.651726 z"
       id="text7"
       style="font-size:128.542px;font-family:'ABC Ginto Nord';-inkscape-font-specification:'ABC Ginto Nord';text-align:center;fill:#ffffff;stroke-width:22.8522;paint-order:stroke fill markers"
       aria-label="r" />
    <path
       d="m 353.348,110.53153 q -23.39465,0 -37.0201,-11.311693 -13.62545,-11.440239 -13.62545,-29.950288 0,-17.481713 12.46857,-28.279242 12.46858,-10.797528 34.06363,-10.797528 21.20943,0 32.00696,9.769192 10.79753,9.769193 10.79753,27.379448 v 8.612315 h -57.45828 q 5.91294,10.797528 26.86528,10.797528 15.2965,0 28.02216,-7.71252 v 22.237768 q -14.13962,9.25502 -36.1203,9.25502 z M 333.80961,62.199739 h 32.90676 q -2.05668,-10.283361 -15.93921,-10.283361 -6.81273,0 -11.18316,2.827924 -4.37043,2.699382 -5.78439,7.455437 z"
       id="text6"
       style="font-size:128.542px;font-family:'ABC Ginto Nord';-inkscape-font-specification:'ABC Ginto Nord';text-align:center;fill:#ffffff;stroke-width:22.8522;paint-order:stroke fill markers"
       aria-label="e" />
    <path
       id="text5"
       style="font-size:128.542px;font-family:'ABC Ginto Nord';-inkscape-font-specification:'ABC Ginto Nord';text-align:center;fill:#ffffff;stroke-width:22.8522;paint-order:stroke fill markers"
       d="m 438.31433,30.192989 c -14.65378,0 -26.69387,3.084725 -36.12028,9.254732 V 61.68564 c 8.48376,-5.141675 17.8244,-7.712708 28.02206,-7.712708 13.81669,0 22.71977,3.527911 26.72654,10.570931 -0.0115,0.07583 -0.0228,0.151495 -0.0346,0.22686 h -57.28487 v 8.612394 c 0,11.740158 3.59893,20.866416 10.79727,27.379203 7.19834,6.51279 14.9163,9.76943 24.68015,9.76943 11.99724,0 19.66684,-8.52713 23.00893,-25.580347 v 23.909137 h 30.85031 V 71.454552 c 0,-12.34002 -4.5419,-22.323291 -13.62552,-29.950109 -9.08363,-7.541122 -21.42355,-11.311454 -37.01996,-11.311454 z m -13.36818,48.331416 h 25.16849 c -3.44901,2.910771 -8.10862,4.370793 -13.98571,4.370793 -5.22738,0 -7.92639,-2.228428 -11.18278,-4.370793 z" />
    <path
       id="text4"
       style="font-size:128.542px;font-family:'ABC Ginto Nord';-inkscape-font-specification:'ABC Ginto Nord';text-align:center;fill:#ffffff;stroke-width:22.8522;paint-order:stroke fill markers"
       d="m 500.27127,19.652547 v 11.440128 23.651786 c 0,36.148219 14.41407,53.216389 53.85924,53.216389 4.54182,0 8.44108,-1.02841 11.69748,-3.08508 V 77.110538 c -3.2564,2.142365 -7.49848,3.213757 -12.72584,3.213757 -14.22531,0 -21.33764,-8.526612 -21.33772,-25.579834 V 43.561165 h 34.06356 V 29.807483 H 531.76443 V 19.652547 Z" />
    <path
       d="m 620.71537,110.53153 c -15.59643,0 -27.93647,-3.77056 -37.0201,-11.311693 -9.08363,-7.626826 -13.62545,-17.610255 -13.62545,-29.950288 0,-11.654475 4.15619,-21.080889 12.46857,-28.279242 8.31239,-7.198352 19.66693,-10.797528 34.06363,-10.797528 14.13962,0 24.80861,3.256397 32.00696,9.769192 7.19835,6.512795 10.79753,15.639278 10.79753,27.379448 v 8.612315 l -57.45828,-6.2e-5 c 3.94196,7.198352 12.89705,10.79759 26.86528,10.79759 10.19767,0 19.53839,-2.57084 28.02216,-7.71252 v 22.237768 c -9.42641,6.17001 -21.46651,9.25502 -36.1203,9.25502 z m -19.53839,-48.331693 32.90676,-9.8e-5 c -1.37112,-6.855574 -6.68419,-10.283361 -15.93921,-10.283361 -4.54182,0 -8.26954,0.942641 -11.18316,2.827924 -2.91362,1.799588 -4.84175,4.284831 -5.78439,7.455535 z"
       id="text3"
       style="font-size:128.542px;font-family:'ABC Ginto Nord';-inkscape-font-specification:'ABC Ginto Nord';text-align:center;fill:#ffffff;stroke-width:22.8522;paint-order:stroke fill markers"
       aria-label="e" />
    <path
       d="M 670.71819,107.96069 V 32.763619 h 30.85008 v 23.908813 q 5.01314,-25.579859 23.00902,-25.579859 6.81273,0 11.69732,3.085008 v 27.765074 q -4.88459,-3.21355 -12.72566,-3.21355 -21.33797,0 -21.33797,25.579859 v 23.651726 z"
       id="text2"
       style="font-size:128.542px;font-family:'ABC Ginto Nord';-inkscape-font-specification:'ABC Ginto Nord';text-align:center;fill:#ffffff;stroke-width:22.8522;paint-order:stroke fill markers"
       aria-label="r" />
    <path
       id="path21"
       style="display:inline;fill:#ffffff;fill-opacity:1;stroke-width:0.645811"
       d="m 54.472627,17.981343 c -9.066763,0 -16.726137,1.891763 -23.009962,5.658052 -6.267016,3.764703 -10.965981,9.017342 -14.08028,15.741157 -3.111898,6.723814 -4.682398,14.417913 -4.682398,23.08593 0,8.484054 1.625535,16.181759 4.876699,23.067326 3.251165,6.904597 8.19769,12.359753 14.851292,16.384532 4.857177,2.93811 10.569911,4.79365 17.122472,5.58829 0.271643,0.0321 0.53954,0.0701 0.813392,0.0987 0.755523,0.0805 1.530737,0.13657 2.308375,0.18912 0.363631,0.0244 0.720971,0.0586 1.0883,0.077 1.054419,0.0528 2.127976,0.0815 3.222038,0.0842 0.06843,1.9e-4 0.133985,0.005 0.202658,0.005 8.484075,0 16.181796,-1.62555 23.067325,-4.8767 6.904619,-3.251159 12.359761,-8.197708 16.384538,-14.851293 4.024764,-6.653576 6.042004,-14.894316 6.042004,-24.731824 v -9.45265 H 93.080186 79.798816 67.518491 V 76.92844 h 9.200411 c -0.83822,1.192513 -1.826847,2.279681 -3.007039,3.232359 -4.078675,3.279969 -9.622752,4.919598 -16.657393,4.919598 l -0.214423,-0.01744 C 51.085941,84.907248 46.613573,82.892892 43.466186,78.993871 40.186208,74.915188 38.546074,69.37164 38.546074,62.337007 c 0,-6.520831 1.462352,-11.719366 4.382157,-15.610933 2.919806,-3.89473 7.342854,-5.858039 13.254499,-5.858039 H 77.195915 V 17.981577 Z"
       transform="matrix(1.3261903,0,0,1,85.549096,0)" />
  </g>
</svg>
